<svg t="1673161426455" class="icon" viewBox="0 0 1024 1024" version="1.1" xmlns="http://www.w3.org/2000/svg" p-id="12161" width="32" height="32"><path d="M824.2 139.9l-10.1 8.8v723.9c0 7.3 5.9 13.3 13.3 13.3h52c7.3 0 13.3-5.9 13.3-13.3V148.7l-9.8-8.8h-58.7zM131.3 148.7v723.9c0 7.3 5.9 13.3 13.3 13.3h52c7.3 0 13.3-5.9 13.3-13.3V148.7l-6.5-5.8h-67.6l-4.5 5.8z" fill="#889CA9" p-id="12162"></path><path d="M835.5 885.8h43.9c7.3 0 13.3-5.9 13.3-13.3V148.7l-9.8-8.8H839l9.8 8.8v723.9c0 7.3-6 13.2-13.3 13.2zM152.7 885.8h43.9c7.3 0 13.3-5.9 13.3-13.3V148.7l-6.5-5.8h-43.9l6.5 5.8v723.9c-0.1 7.3-6 13.2-13.3 13.2z" fill="#73859E" p-id="12163"></path><path d="M92 659.5v52c0 7.3 5.9 13.3 13.3 13.3h813.5c7.3 0 13.3-5.9 13.3-13.3v-52c0-7.3-5.9-13.3-13.3-13.3H105.3c-7.4 0.1-13.3 6-13.3 13.3z" fill="#889CA9" p-id="12164"></path><path d="M840.1 724.9h78.6c7.3 0 13.3-5.9 13.3-13.3v-52c0-7.3-5.9-13.3-13.3-13.3h-78.6c7.3 0 13.3 5.9 13.3 13.3v52c0 7.3-5.9 13.3-13.3 13.3z" fill="#73859E" p-id="12165"></path><path d="M92 111.6v52c0 7.3 5.9 13.3 13.3 13.3h813.5c7.3 0 13.3-5.9 13.3-13.3v-52c0-7.3-5.9-13.3-13.3-13.3H105.3c-7.4 0-13.3 5.9-13.3 13.3z" fill="#889CA9" p-id="12166"></path><path d="M840.1 176.9h78.6c7.3 0 13.3-5.9 13.3-13.3v-52c0-7.3-5.9-13.3-13.3-13.3h-78.6c7.3 0 13.3 5.9 13.3 13.3v52c0 7.3-5.9 13.3-13.3 13.3z" fill="#73859E" p-id="12167"></path><path d="M271 238.6v407.7h-33.8c-7.5 0-13.7-6.1-13.7-13.7V252.3c0-7.5 6.1-13.7 13.7-13.7H271z" fill="#EB866B" p-id="12168"></path><path d="M251.6 270.5H271v234.6h-19.4z" fill="#FEF8E6" p-id="12169"></path><path d="M318.4 252.3v380.3c0 7.5-6.1 13.7-13.7 13.7H271V505.1h19.4V270.5H271v-31.9h33.7c7.6 0 13.7 6.1 13.7 13.7z" fill="#DA6749" p-id="12170"></path><path d="M271 270.5h19.4v234.6H271z" fill="#FCEFAD" p-id="12171"></path><path d="M365.8 238.6v407.7H332c-7.5 0-13.6-6.1-13.6-13.7V252.3c0-7.5 6.1-13.7 13.6-13.7h33.8z" fill="#FDF17F" p-id="12172"></path><path d="M346.4 270.5h19.4v234.6h-19.4z" fill="#46CDFB" p-id="12173"></path><path d="M413.2 252.3v380.3c0 7.5-6.1 13.7-13.7 13.7h-33.8V505.1h19.4V270.5h-19.4v-31.9h33.8c7.6 0 13.7 6.1 13.7 13.7z" fill="#FAD672" p-id="12174"></path><path d="M365.8 270.5h19.4v234.6h-19.4z" fill="#15B7FF" p-id="12175"></path><path d="M756.6 328.6v317.7h-33.8c-7.5 0-13.7-6.1-13.7-13.7V342.3c0-7.5 6.1-13.7 13.7-13.7h33.8z" fill="#F77490" p-id="12176"></path><path d="M737.2 362.6h19.4V541h-19.4z" fill="#FDF17F" p-id="12177"></path><path d="M804.1 342.3v290.3c0 7.5-6.1 13.7-13.7 13.7h-33.8V541H776V362.6h-19.4v-34h33.8c7.6 0 13.7 6.1 13.7 13.7z" fill="#F65D73" p-id="12178"></path><path d="M756.6 362.6H776V541h-19.4z" fill="#FAD672" p-id="12179"></path><path d="M661.8 378.6v267.7H628c-7.5 0-13.7-6.1-13.7-13.7V392.3c0-7.5 6.1-13.7 13.7-13.7h33.8z" fill="#8ADCFF" p-id="12180"></path><path d="M642.4 415.9h19.4v178.3h-19.4z" fill="#46CDFB" p-id="12181"></path><path d="M709.2 392.3v240.3c0 7.5-6.1 13.7-13.7 13.7h-33.8v-52h19.4V415.9h-19.4v-37.3h33.8c7.6 0 13.7 6.1 13.7 13.7z" fill="#46CDFB" p-id="12182"></path><path d="M661.8 415.9h19.4v178.3h-19.4z" fill="#15B7FF" p-id="12183"></path><path d="M529.4 640l-34.1 6c-7.4 1.3-14.5-3.7-15.8-11.1l-66-374.6c-1.3-7.4 3.6-14.5 11.1-15.8l33-5.8 8.3 46.1 41.3 230.9L529.4 640z" fill="#50E6CC" p-id="12184"></path><path d="M507.2 515.8l-19.5 3.5-41.4-230.9 19.5-3.5z" fill="#FDF17F" p-id="12185"></path><path d="M507.2 515.8l-19.5 3.5-41.4-230.9 19.5-3.5z" fill="#FDF17F" p-id="12186"></path><path d="M561.8 634.3l-32.4 5.7-22.3-124.2 18.7-3.3-41.3-230.9-18.7 3.4-8.3-46.1L491 233c7.4-1.3 14.5 3.7 15.8 11.1l66 374.5c1.4 7.3-3.5 14.4-11 15.7z" fill="#45DABD" p-id="12187"></path><path d="M465.745 284.928l18.702-3.35 41.36 230.917-18.702 3.35z" fill="#FAD672" p-id="12188"></path></svg>