<svg data-v-2cb57da0="" version="1.0" xmlns="http://www.w3.org/2000/svg"
    xmlns:xlink="http://www.w3.org/1999/xlink" width="100%" height="100%"
    viewBox="0 0 340.000000 250.000000" preserveAspectRatio="xMidYMid meet"
    color-interpolation-filters="sRGB" style="margin: auto;background: black;">
    <rect data-v-2cb57da0="" x="0" y="0" width="100%" height="100%" fill="#0a0619" fill-opacity="0"
        class="background"></rect>
    <rect data-v-2cb57da0="" x="0" y="0" width="100%" height="100%" fill="url(#watermark)"
        fill-opacity="1" class="watermarklayer"></rect>
    <g data-v-2cb57da0="" fill="#ffffff" class="icon-text-wrapper icon-svg-group iconsvg"
        transform="translate(84.11000061035156,99.36499977111816)">
        <g class="iconsvg-imagesvg" transform="matrix(1,0,0,1,0,1.7997493743896484)"
            mask="url(#01cfeaeb-54c7-4ddc-9c80-baf8f8b6acb4)" opacity="1">
            <g>
                <rect fill="#ffffff" fill-opacity="0" stroke-width="2" x="0" y="0" width="60"
                    height="47.670501493675715" class="image-rect"></rect>
                <svg filter="url(#colors233137006)" x="0" y="0" width="60"
                    height="47.670501493675715" filtersec="colorsf9679442195"
                    class="image-svg-svg primary" style="overflow: visible;">
                    <svg fill="#000000" xmlns="http://www.w3.org/2000/svg"
                        xmlns:xlink="http://www.w3.org/1999/xlink" version="1.1" x="0px" y="0px"
                        viewBox="17.174999237060547 30.883987426757812 130.33299255371094 103.55068969726562"
                        enable-background="new 0 0 164 164" xml:space="preserve"><path fill-rule="evenodd" clip-rule="evenodd" d="M110.77,72.387l-24.524,51.576c-3.732,7.857-10.37,10.839-16.901,10.436  c-2.507-0.154-4.996-0.826-7.285-1.923c-2.288-1.096-4.376-2.616-6.086-4.468c-1.365-1.479-2.499-3.164-3.316-5.013l-0.461,0.968  c-3.731,7.857-10.37,10.839-16.901,10.436c-2.508-0.154-4.996-0.826-7.285-1.923c-2.288-1.097-4.376-2.616-6.086-4.468  c-4.547-4.926-6.531-12.143-2.782-20.052l35.213-74.255c0.706-1.495,2.49-2.135,3.984-1.43l6.401,3.036  c0.938,0.442,1.539,1.309,1.683,2.262l0.004,0c0.184,1.202,0.499,2.21,0.918,3.037c0.626,1.23,1.492,2.055,2.492,2.51  c1.051,0.479,2.325,0.595,3.695,0.387c1.101-0.168,2.25-0.551,3.392-1.132c0.912-0.463,1.949-0.417,2.786,0.036l3.727,1.767  l4.966-10.473c0.705-1.495,2.489-2.135,3.984-1.43l6.401,3.036c0.938,0.442,1.538,1.309,1.683,2.262l0.005,0  c0.174,1.146,0.458,2.101,0.828,2.875c0.614,1.287,1.492,2.152,2.52,2.637c1.069,0.505,2.367,0.632,3.758,0.42  c1.027-0.156,2.074-0.486,3.098-0.975l0.089-0.04v-8.602c0-1.657,1.343-3,2.999-3h7.085c1.082,0,2.029,0.573,2.558,1.432  c0.666,0.967,1.358,1.711,2.058,2.251c1.089,0.84,2.229,1.212,3.339,1.195c1.15-0.017,2.348-0.457,3.493-1.23  c0.935-0.632,1.813-1.47,2.589-2.476c0.589-0.763,1.473-1.162,2.367-1.163v-0.009h7.25c1.656,0,3,1.343,3,3  c0,0.088-0.004,0.176-0.012,0.262v82.231c-0.005,8.694-4.727,14.232-10.803,16.667c-2.33,0.934-4.863,1.394-7.4,1.383  c-2.531-0.01-5.065-0.488-7.402-1.429c-6.221-2.503-11.108-8.177-11.108-16.933h-0.012V72.387L110.77,72.387z M80.831,121.408  l29.939-62.962v-9.548c-0.771,0.24-1.539,0.418-2.296,0.534c-2.532,0.386-5.012,0.1-7.203-0.936  c-2.234-1.055-4.104-2.855-5.355-5.474c-0.43-0.899-0.782-1.882-1.047-2.949l-2.335-1.107  c-11.469,24.186-22.882,48.406-34.373,72.578c-1.916,4.935-0.601,9.356,2.218,12.41c1.203,1.303,2.664,2.369,4.257,3.132  c1.592,0.763,3.32,1.229,5.059,1.337C73.963,128.686,78.328,126.68,80.831,121.408L80.831,121.408z M80.873,49.583l-2.605-1.235  c-1.274,0.525-2.567,0.89-3.843,1.084c-2.475,0.377-4.905,0.108-7.07-0.878c-2.216-1.009-4.081-2.731-5.352-5.229  c-0.492-0.968-0.894-2.051-1.187-3.252l-2.333-1.106l-33.927,71.545c-2.536,5.348-1.241,10.177,1.773,13.442  c1.203,1.304,2.664,2.368,4.257,3.132c1.592,0.763,3.32,1.229,5.059,1.337c4.268,0.264,8.632-1.742,11.136-7.014  c0.561-1.183,1.481-3.09,2.506-5.215C59.961,94.073,70.348,71.778,80.873,49.583L80.873,49.583z M116.769,59.623v56.444h-0.012  c0,5.914,3.238,9.721,7.359,11.378c1.646,0.663,3.427,1,5.199,1.007c1.768,0.007,3.531-0.313,5.15-0.961  c3.967-1.589,7.049-5.272,7.053-11.112V36.884h-2.875c-0.926,1.021-1.932,1.901-2.991,2.617c-2.077,1.403-4.392,2.203-6.774,2.239  c-2.424,0.037-4.842-0.721-7.065-2.438c-0.861-0.665-1.687-1.468-2.461-2.418h-2.583v22.531V59.623z"></path></svg>
                </svg>
                <defs>
                    <filter id="colors233137006">
                        <feColorMatrix type="matrix"
                            values="0 0 0 0 0.99609375  0 0 0 0 0.99609375  0 0 0 0 0.99609375  0 0 0 1 0"
                            class="icon-fecolormatrix"></feColorMatrix>
                    </filter>
                    <filter id="colorsf9679442195">
                        <feColorMatrix type="matrix"
                            values="0 0 0 0 0.99609375  0 0 0 0 0.99609375  0 0 0 0 0.99609375  0 0 0 1 0"
                            class="icon-fecolormatrix"></feColorMatrix>
                    </filter>
                    <filter id="colorsb629207948">
                        <feColorMatrix type="matrix"
                            values="0 0 0 0 0  0 0 0 0 0  0 0 0 0 0  0 0 0 1 0"
                            class="icon-fecolormatrix"></feColorMatrix>
                    </filter>
                </defs>
            </g>
            <rect v-gra="id" width="72" height="59.670501708984375" transform="translate(-6, -6)"
                style="pointer-events:none;" fill="url(#94X4GaQlHwKTWDLHG93iI)"></rect>
        </g>
        <g transform="translate(67,0)">
            <g data-gra="path-name" fill-rule="" class="tp-name iconsvg-namesvg" opacity="1"
                transform="matrix(1,0,0,1,0,0)">
                <g transform="scale(1)">
                    <g>
                        <path
                            d="M38.83-19.75L38.83-19.75Q41.03-20.3 41.58-20.63L41.58-20.63Q43.17-21.56 44.16-21.56 45.16-21.56 48.07-19.44 50.98-17.32 50.98-16.45L50.98-16.45Q50.98-15.79 49.55-14.63L49.55-14.63Q48.79-14.03 48.26-12.79 47.74-11.55 46.56-7.56 45.38-3.58 43.12-1.65 40.87 0.28 39.6 0.28 38.34 0.28 37.67-1.32L37.67-1.32Q37.34-2.15 36.55-3.38 35.75-4.62 34.35-6.02 32.95-7.42 32.95-7.97L32.95-7.97Q32.95-8.3 33.49-8.3 34.05-8.3 35.91-7.78 37.79-7.26 38.75-7.26 39.71-7.26 40.12-7.92 40.54-8.58 41.22-11.36 41.91-14.13 41.91-15.1 41.91-16.06 40.98-16.06 40.04-16.06 36.33-15.76 32.62-15.46 28.71-14.9L28.71-14.9Q28.55-2.37 28.16 0.08 27.77 2.53 26.95 5.03 26.13 7.54 25.44 7.54 24.75 7.54 24.14 5.17 23.54 2.81 23.46 0.96 23.38-0.88 23.38-6.49 23.38-12.1 23.43-14.19L23.43-14.19Q17.77-13.31 15.29-12.57 12.81-11.82 11.49-11.82 10.18-11.82 8.39-13.47 6.6-15.13 6.6-15.62 6.6-16.11 7.51-16.2 8.42-16.28 10.29-16.28L10.29-16.28Q14.03-16.28 23.43-17.32L23.43-17.32Q23.54-22.82 23.54-25.19L23.54-25.19Q21.84-24.7 20.63-24.31 19.41-23.93 18.51-23.93 17.6-23.93 15.76-25.44 13.92-26.95 13.92-27.42 13.92-27.89 16.72-27.97 19.52-28.05 23.54-28.6L23.54-28.6Q23.54-33.27 23.38-35.61 23.21-37.95 22.66-38.72L22.66-38.72Q20.79-41.09 20.79-42.02 20.79-42.95 22.11-42.95L22.11-42.95Q23.27-42.95 27-41.8 30.75-40.65 30.75-39.38L30.75-39.38Q30.75-38.83 30.14-37.51L30.14-37.51Q29.21-35.31 28.93-29.48L28.93-29.48Q33.83-30.41 35.37-31.18 36.91-31.96 38.06-31.96 39.22-31.96 41.72-30.14 44.22-28.32 44.22-27.5L44.22-27.5Q44.22-26.95 42.95-25.85 41.69-24.75 40.87-23.46 40.04-22.16 38.83-19.75ZM28.71-17.98L34.05-18.81Q35.59-24.64 35.59-25.8 35.59-26.95 34.7-26.95L34.7-26.95Q33.05-26.95 28.88-26.29L28.88-26.29 28.71-17.98ZM38.77-38.94L38.77-38.94Q40.48-38.94 43.59-38.23 46.7-37.51 47.6-35.97 48.51-34.43 48.51-33.05 48.51-31.68 47.93-30.96 47.35-30.25 46.42-30.25L46.42-30.25Q44.6-30.25 41.03-33.72 37.45-37.18 37.45-38.28L37.45-38.28Q37.45-38.94 38.77-38.94ZM80.8-43.73L80.8-43.73Q83.71-43.73 85.41-42.93 87.12-42.13 87.12-39.52 87.12-36.91 85.47-36.91L85.47-36.91Q83.82-36.91 81.04-39.68 78.27-42.46 78.27-43.17L78.27-43.17Q78.27-43.73 80.8-43.73ZM87.01-26.84L87.01-26.84Q97.24-21.61 107.75-21.18L107.75-21.18Q111.38-21.01 111.38-20.13L111.38-20.13Q111.38-19.69 110.36-19.14 109.34-18.59 105.55-17.27 101.75-15.95 100.24-15.95 98.72-15.95 97.46-16.72L97.46-16.72 84.37-24.09Q80.63-20.73 74.86-18.51 69.08-16.28 65.17-16.28 61.27-16.28 61.27-16.77L61.27-16.77Q61.27-17.21 63.91-18.04L63.91-18.04Q69.8-19.91 73.45-21.89 77.11-23.87 80.3-26.46L80.3-26.46Q76.89-28.32 74.61-28.74 72.33-29.15 72.33-29.86L72.33-29.86Q72.33-30.47 73.86-30.94 75.41-31.41 76.45-31.41L76.45-31.41Q78.43-31.41 83.11-28.93L83.11-28.93Q85.41-31.35 85.97-33.77L85.97-33.77Q77.72-32.78 72.93-31.57L72.93-31.57Q72.11-31.35 71.25-31.35 70.4-31.35 68.81-32.29 67.21-33.22 67.21-33.8 67.21-34.38 69.85-34.46 72.49-34.54 81.21-35.8 89.92-37.07 92.7-37.87 95.48-38.66 96.85-38.66 98.23-38.66 99.85-37.59 101.47-36.52 101.47-35.78 101.47-35.04 100.59-34.7 99.72-34.38 98.59-34.48 97.46-34.59 95.59-34.59 93.72-34.59 89.65-34.21L89.65-34.21Q92.02-32.4 92.02-31.76 92.02-31.13 90.81-30.25L90.81-30.25Q89.1-28.98 87.01-26.84ZM80.47-11.44L80.47-11.44Q84.53-12.1 88.06-12.9 91.58-13.7 92.9-14.3 94.22-14.9 95.09-14.9 95.97-14.9 97.79-13.72 99.6-12.54 100.59-11.63 101.59-10.72 101.59-10.12 101.59-9.52 100.62-8.36 99.66-7.21 99.16-0.94L99.16-0.94Q98.89 2.75 96.66 4.84 94.44 6.93 93.22 6.93 92.02 6.93 91.49 5 90.97 3.08 89.54 1.43 88.11-0.22 88.11-0.63 88.11-1.04 88.69-1.04 89.27-1.04 90.61-0.66 91.96-0.28 92.43-0.28 92.9-0.28 93.2-1.07 93.5-1.87 93.78-3.88 94.05-5.88 94.05-9.29L94.05-9.29Q94.05-9.85 93.75-10.09 93.44-10.34 92.4-10.34 91.35-10.34 88.6-10.01L88.6-10.01Q88.38-2.81 87.56-0.58 86.73 1.65 85.8 1.65L85.8 1.65Q84.09 1.65 84.09-9.4L84.09-9.4Q81.51-9.07 80.41-8.91L80.41-8.91Q80.58-7.37 80.58-5.12 80.58-2.86 79.94-0.96 79.31 0.94 78.57 0.94 77.83 0.94 77.14-0.91 76.45-2.75 76.45-8.36L76.45-8.36 72.6-7.87 72.93-0.77Q72.93 3.25 71.11 3.25L71.11 3.25Q70.29 3.25 69.11 2.2 67.92 1.16 67.92 0.17 67.92-0.82 68.31-2.53L68.31-2.53Q68.42-2.97 68.42-3.9 68.42-4.84 68.06-6.19 67.7-7.54 66.99-8.36 66.28-9.19 66.28-9.85L66.28-9.85Q66.28-10.78 67.54-10.78 68.81-10.78 70.4-10.23L70.4-10.23 76.67-10.89Q78.16-13.31 78.38-15.46L78.38-15.46Q76.67-15.51 75.19-16.11 73.7-16.72 73.7-17.27 73.7-17.82 75.68-17.93 77.66-18.04 80.6-18.59 83.55-19.14 86.02-19.96L86.02-19.96Q87.45-20.41 88.5-20.41 89.54-20.41 90.86-19.77 92.18-19.14 92.18-18.56 92.18-17.98 91.69-17.68 91.19-17.38 88.74-16.83 86.3-16.28 83-15.79L83-15.79Q83.77-14.79 83.77-14.36 83.77-13.92 83.16-13.64L83.16-13.64Q81.67-12.93 80.47-11.44Z"
                            transform="translate(-6.599999904632568, 43.72999954223633)"></path>
                    </g> <!----> <!----> <!----> <!----> <!----> <!----> <!---->
                </g>
            </g> <!---->
        </g>
    </g>
    <defs v-gra="od"></defs>
    <defs v-gra="id">
        <filter id="913feaa0-7f5c-42ab-88fc-6abdf35e93df" filterUnits="userSpaceOnUse">
            <feColorMatrix type="matrix"
                values="0 0 0 0 0.99609375  0 0 0 0 0.99609375  0 0 0 0 0.99609375  0 0 0 1 0"></feColorMatrix>
        </filter>
        <linearGradient x1="0" y1="1" x2="0" y2="0" id="94X4GaQlHwKTWDLHG93iI">
            <stop offset="0%" stop-color="#fdb051"></stop>
            <stop offset="50%" stop-color="#f2203e"></stop>
            <stop offset="100%" stop-color="#5342d6"></stop>
        </linearGradient>
        <filter id="42443b3f1de60f6b6fd3b6a9844b4764" filterUnits="userSpaceOnUse">
            <feColorMatrix type="matrix"
                values="0 0 0 0 0.99609375  0 0 0 0 0.99609375  0 0 0 0 0.99609375  0 0 0 1 0"></feColorMatrix>
        </filter>
    </defs>
    <mask v-gra="im" id="01cfeaeb-54c7-4ddc-9c80-baf8f8b6acb4">
        <g class="iconsvg-imagesvg" filter="url(#913feaa0-7f5c-42ab-88fc-6abdf35e93df)">
            <g>
                <rect fill="#ffffff" fill-opacity="0" stroke-width="2" x="0" y="0" width="60"
                    height="47.670501493675715" class="image-rect"></rect>
                <svg x="0" y="0" width="60" height="47.670501493675715"
                    filtersec="colorsf9679442195" class="image-svg-svg primary"
                    style="overflow: visible;">
                    <svg fill="#000000" xmlns="http://www.w3.org/2000/svg"
                        xmlns:xlink="http://www.w3.org/1999/xlink" version="1.1" x="0px" y="0px"
                        viewBox="17.174999237060547 30.883987426757812 130.33299255371094 103.55068969726562"
                        enable-background="new 0 0 164 164" xml:space="preserve"><path fill-rule="evenodd" clip-rule="evenodd" d="M110.77,72.387l-24.524,51.576c-3.732,7.857-10.37,10.839-16.901,10.436  c-2.507-0.154-4.996-0.826-7.285-1.923c-2.288-1.096-4.376-2.616-6.086-4.468c-1.365-1.479-2.499-3.164-3.316-5.013l-0.461,0.968  c-3.731,7.857-10.37,10.839-16.901,10.436c-2.508-0.154-4.996-0.826-7.285-1.923c-2.288-1.097-4.376-2.616-6.086-4.468  c-4.547-4.926-6.531-12.143-2.782-20.052l35.213-74.255c0.706-1.495,2.49-2.135,3.984-1.43l6.401,3.036  c0.938,0.442,1.539,1.309,1.683,2.262l0.004,0c0.184,1.202,0.499,2.21,0.918,3.037c0.626,1.23,1.492,2.055,2.492,2.51  c1.051,0.479,2.325,0.595,3.695,0.387c1.101-0.168,2.25-0.551,3.392-1.132c0.912-0.463,1.949-0.417,2.786,0.036l3.727,1.767  l4.966-10.473c0.705-1.495,2.489-2.135,3.984-1.43l6.401,3.036c0.938,0.442,1.538,1.309,1.683,2.262l0.005,0  c0.174,1.146,0.458,2.101,0.828,2.875c0.614,1.287,1.492,2.152,2.52,2.637c1.069,0.505,2.367,0.632,3.758,0.42  c1.027-0.156,2.074-0.486,3.098-0.975l0.089-0.04v-8.602c0-1.657,1.343-3,2.999-3h7.085c1.082,0,2.029,0.573,2.558,1.432  c0.666,0.967,1.358,1.711,2.058,2.251c1.089,0.84,2.229,1.212,3.339,1.195c1.15-0.017,2.348-0.457,3.493-1.23  c0.935-0.632,1.813-1.47,2.589-2.476c0.589-0.763,1.473-1.162,2.367-1.163v-0.009h7.25c1.656,0,3,1.343,3,3  c0,0.088-0.004,0.176-0.012,0.262v82.231c-0.005,8.694-4.727,14.232-10.803,16.667c-2.33,0.934-4.863,1.394-7.4,1.383  c-2.531-0.01-5.065-0.488-7.402-1.429c-6.221-2.503-11.108-8.177-11.108-16.933h-0.012V72.387L110.77,72.387z M80.831,121.408  l29.939-62.962v-9.548c-0.771,0.24-1.539,0.418-2.296,0.534c-2.532,0.386-5.012,0.1-7.203-0.936  c-2.234-1.055-4.104-2.855-5.355-5.474c-0.43-0.899-0.782-1.882-1.047-2.949l-2.335-1.107  c-11.469,24.186-22.882,48.406-34.373,72.578c-1.916,4.935-0.601,9.356,2.218,12.41c1.203,1.303,2.664,2.369,4.257,3.132  c1.592,0.763,3.32,1.229,5.059,1.337C73.963,128.686,78.328,126.68,80.831,121.408L80.831,121.408z M80.873,49.583l-2.605-1.235  c-1.274,0.525-2.567,0.89-3.843,1.084c-2.475,0.377-4.905,0.108-7.07-0.878c-2.216-1.009-4.081-2.731-5.352-5.229  c-0.492-0.968-0.894-2.051-1.187-3.252l-2.333-1.106l-33.927,71.545c-2.536,5.348-1.241,10.177,1.773,13.442  c1.203,1.304,2.664,2.368,4.257,3.132c1.592,0.763,3.32,1.229,5.059,1.337c4.268,0.264,8.632-1.742,11.136-7.014  c0.561-1.183,1.481-3.09,2.506-5.215C59.961,94.073,70.348,71.778,80.873,49.583L80.873,49.583z M116.769,59.623v56.444h-0.012  c0,5.914,3.238,9.721,7.359,11.378c1.646,0.663,3.427,1,5.199,1.007c1.768,0.007,3.531-0.313,5.15-0.961  c3.967-1.589,7.049-5.272,7.053-11.112V36.884h-2.875c-0.926,1.021-1.932,1.901-2.991,2.617c-2.077,1.403-4.392,2.203-6.774,2.239  c-2.424,0.037-4.842-0.721-7.065-2.438c-0.861-0.665-1.687-1.468-2.461-2.418h-2.583v22.531V59.623z"></path></svg>
                </svg>
                <defs>
                    <filter id="colors233137006">
                        <feColorMatrix type="matrix"
                            values="0 0 0 0 0.99609375  0 0 0 0 0.99609375  0 0 0 0 0.99609375  0 0 0 1 0"
                            class="icon-fecolormatrix"></feColorMatrix>
                    </filter>
                    <filter id="colorsf9679442195">
                        <feColorMatrix type="matrix"
                            values="0 0 0 0 0.99609375  0 0 0 0 0.99609375  0 0 0 0 0.99609375  0 0 0 1 0"
                            class="icon-fecolormatrix"></feColorMatrix>
                    </filter>
                    <filter id="colorsb629207948">
                        <feColorMatrix type="matrix"
                            values="0 0 0 0 0  0 0 0 0 0  0 0 0 0 0  0 0 0 1 0"
                            class="icon-fecolormatrix"></feColorMatrix>
                    </filter>
                </defs>
            </g>
        </g>
    </mask>
</svg>