<svg data-v-2cb57da0="" version="1.0" xmlns="http://www.w3.org/2000/svg"
    xmlns:xlink="http://www.w3.org/1999/xlink" width="100%" height="100%"
    viewBox="0 0 340.000000 250.000000" preserveAspectRatio="xMidYMid meet"
    color-interpolation-filters="sRGB" style="margin: auto;background: black;">
    <g data-v-2cb57da0="" fill="#ffffff" class="icon-text-wrapper icon-svg-group iconsvg"
        transform="translate(84.11000061035156,99.36499977111816)">
        <g class="iconsvg-imagesvg" transform="matrix(1,0,0,1,0,1.7997493743896484)"
            mask="url(#01cfeaeb-54c7-4ddc-9c80-baf8f8b6acb4)" opacity="1">
            <g>
                <svg filter="url(#colors233137006)" x="0" y="0" width="60"
                    height="47.670501493675715" filtersec="colorsf9679442195"
                    class="image-svg-svg primary" style="overflow: visible;">
                    <svg fill="#000000" xmlns="http://www.w3.org/2000/svg"
                        xmlns:xlink="http://www.w3.org/1999/xlink" version="1.1" x="0px" y="0px"
                        viewBox="17.174999237060547 30.883987426757812 130.33299255371094 103.55068969726562"
                        enable-background="new 0 0 164 164" xml:space="preserve"><path fill-rule="evenodd" clip-rule="evenodd" d="M110.77,72.387l-24.524,51.576c-3.732,7.857-10.37,10.839-16.901,10.436  c-2.507-0.154-4.996-0.826-7.285-1.923c-2.288-1.096-4.376-2.616-6.086-4.468c-1.365-1.479-2.499-3.164-3.316-5.013l-0.461,0.968  c-3.731,7.857-10.37,10.839-16.901,10.436c-2.508-0.154-4.996-0.826-7.285-1.923c-2.288-1.097-4.376-2.616-6.086-4.468  c-4.547-4.926-6.531-12.143-2.782-20.052l35.213-74.255c0.706-1.495,2.49-2.135,3.984-1.43l6.401,3.036  c0.938,0.442,1.539,1.309,1.683,2.262l0.004,0c0.184,1.202,0.499,2.21,0.918,3.037c0.626,1.23,1.492,2.055,2.492,2.51  c1.051,0.479,2.325,0.595,3.695,0.387c1.101-0.168,2.25-0.551,3.392-1.132c0.912-0.463,1.949-0.417,2.786,0.036l3.727,1.767  l4.966-10.473c0.705-1.495,2.489-2.135,3.984-1.43l6.401,3.036c0.938,0.442,1.538,1.309,1.683,2.262l0.005,0  c0.174,1.146,0.458,2.101,0.828,2.875c0.614,1.287,1.492,2.152,2.52,2.637c1.069,0.505,2.367,0.632,3.758,0.42  c1.027-0.156,2.074-0.486,3.098-0.975l0.089-0.04v-8.602c0-1.657,1.343-3,2.999-3h7.085c1.082,0,2.029,0.573,2.558,1.432  c0.666,0.967,1.358,1.711,2.058,2.251c1.089,0.84,2.229,1.212,3.339,1.195c1.15-0.017,2.348-0.457,3.493-1.23  c0.935-0.632,1.813-1.47,2.589-2.476c0.589-0.763,1.473-1.162,2.367-1.163v-0.009h7.25c1.656,0,3,1.343,3,3  c0,0.088-0.004,0.176-0.012,0.262v82.231c-0.005,8.694-4.727,14.232-10.803,16.667c-2.33,0.934-4.863,1.394-7.4,1.383  c-2.531-0.01-5.065-0.488-7.402-1.429c-6.221-2.503-11.108-8.177-11.108-16.933h-0.012V72.387L110.77,72.387z M80.831,121.408  l29.939-62.962v-9.548c-0.771,0.24-1.539,0.418-2.296,0.534c-2.532,0.386-5.012,0.1-7.203-0.936  c-2.234-1.055-4.104-2.855-5.355-5.474c-0.43-0.899-0.782-1.882-1.047-2.949l-2.335-1.107  c-11.469,24.186-22.882,48.406-34.373,72.578c-1.916,4.935-0.601,9.356,2.218,12.41c1.203,1.303,2.664,2.369,4.257,3.132  c1.592,0.763,3.32,1.229,5.059,1.337C73.963,128.686,78.328,126.68,80.831,121.408L80.831,121.408z M80.873,49.583l-2.605-1.235  c-1.274,0.525-2.567,0.89-3.843,1.084c-2.475,0.377-4.905,0.108-7.07-0.878c-2.216-1.009-4.081-2.731-5.352-5.229  c-0.492-0.968-0.894-2.051-1.187-3.252l-2.333-1.106l-33.927,71.545c-2.536,5.348-1.241,10.177,1.773,13.442  c1.203,1.304,2.664,2.368,4.257,3.132c1.592,0.763,3.32,1.229,5.059,1.337c4.268,0.264,8.632-1.742,11.136-7.014  c0.561-1.183,1.481-3.09,2.506-5.215C59.961,94.073,70.348,71.778,80.873,49.583L80.873,49.583z M116.769,59.623v56.444h-0.012  c0,5.914,3.238,9.721,7.359,11.378c1.646,0.663,3.427,1,5.199,1.007c1.768,0.007,3.531-0.313,5.15-0.961  c3.967-1.589,7.049-5.272,7.053-11.112V36.884h-2.875c-0.926,1.021-1.932,1.901-2.991,2.617c-2.077,1.403-4.392,2.203-6.774,2.239  c-2.424,0.037-4.842-0.721-7.065-2.438c-0.861-0.665-1.687-1.468-2.461-2.418h-2.583v22.531V59.623z"></path></svg>
                </svg>
                <defs>
                    <filter id="colors233137006">
                        <feColorMatrix type="matrix"
                            values="0 0 0 0 0.99609375  0 0 0 0 0.99609375  0 0 0 0 0.99609375  0 0 0 1 0"
                            class="icon-fecolormatrix"></feColorMatrix>
                    </filter>
                    <filter id="colorsf9679442195">
                        <feColorMatrix type="matrix"
                            values="0 0 0 0 0.99609375  0 0 0 0 0.99609375  0 0 0 0 0.99609375  0 0 0 1 0"
                            class="icon-fecolormatrix"></feColorMatrix>
                    </filter>
                    <filter id="colorsb629207948">
                        <feColorMatrix type="matrix"
                            values="0 0 0 0 0  0 0 0 0 0  0 0 0 0 0  0 0 0 1 0"
                            class="icon-fecolormatrix"></feColorMatrix>
                    </filter>
                </defs>
            </g>
            <rect v-gra="id" width="72" height="59.670501708984375" transform="translate(-6, -6)"
                style="pointer-events:none;" fill="url(#94X4GaQlHwKTWDLHG93iI)"></rect>
        </g>
    </g>
    <defs v-gra="od"></defs>
    <defs v-gra="id">
        <filter id="913feaa0-7f5c-42ab-88fc-6abdf35e93df" filterUnits="userSpaceOnUse">
            <feColorMatrix type="matrix"
                values="0 0 0 0 0.99609375  0 0 0 0 0.99609375  0 0 0 0 0.99609375  0 0 0 1 0"></feColorMatrix>
        </filter>
        <linearGradient x1="0" y1="1" x2="0" y2="0" id="94X4GaQlHwKTWDLHG93iI">
            <stop offset="0%" stop-color="#fdb051"></stop>
            <stop offset="50%" stop-color="#f2203e"></stop>
            <stop offset="100%" stop-color="#5342d6"></stop>
        </linearGradient>
        <filter id="42443b3f1de60f6b6fd3b6a9844b4764" filterUnits="userSpaceOnUse">
            <feColorMatrix type="matrix"
                values="0 0 0 0 0.99609375  0 0 0 0 0.99609375  0 0 0 0 0.99609375  0 0 0 1 0"></feColorMatrix>
        </filter>
    </defs>
    <mask v-gra="im" id="01cfeaeb-54c7-4ddc-9c80-baf8f8b6acb4">
        <g class="iconsvg-imagesvg" filter="url(#913feaa0-7f5c-42ab-88fc-6abdf35e93df)">
            <g>
                <rect fill="#ffffff" fill-opacity="0" stroke-width="2" x="0" y="0" width="60"
                    height="47.670501493675715" class="image-rect"></rect>
                <svg x="0" y="0" width="60" height="47.670501493675715"
                    filtersec="colorsf9679442195" class="image-svg-svg primary"
                    style="overflow: visible;">
                    <svg fill="#000000" xmlns="http://www.w3.org/2000/svg"
                        xmlns:xlink="http://www.w3.org/1999/xlink" version="1.1" x="0px" y="0px"
                        viewBox="17.174999237060547 30.883987426757812 130.33299255371094 103.55068969726562"
                        enable-background="new 0 0 164 164" xml:space="preserve"><path fill-rule="evenodd" clip-rule="evenodd" d="M110.77,72.387l-24.524,51.576c-3.732,7.857-10.37,10.839-16.901,10.436  c-2.507-0.154-4.996-0.826-7.285-1.923c-2.288-1.096-4.376-2.616-6.086-4.468c-1.365-1.479-2.499-3.164-3.316-5.013l-0.461,0.968  c-3.731,7.857-10.37,10.839-16.901,10.436c-2.508-0.154-4.996-0.826-7.285-1.923c-2.288-1.097-4.376-2.616-6.086-4.468  c-4.547-4.926-6.531-12.143-2.782-20.052l35.213-74.255c0.706-1.495,2.49-2.135,3.984-1.43l6.401,3.036  c0.938,0.442,1.539,1.309,1.683,2.262l0.004,0c0.184,1.202,0.499,2.21,0.918,3.037c0.626,1.23,1.492,2.055,2.492,2.51  c1.051,0.479,2.325,0.595,3.695,0.387c1.101-0.168,2.25-0.551,3.392-1.132c0.912-0.463,1.949-0.417,2.786,0.036l3.727,1.767  l4.966-10.473c0.705-1.495,2.489-2.135,3.984-1.43l6.401,3.036c0.938,0.442,1.538,1.309,1.683,2.262l0.005,0  c0.174,1.146,0.458,2.101,0.828,2.875c0.614,1.287,1.492,2.152,2.52,2.637c1.069,0.505,2.367,0.632,3.758,0.42  c1.027-0.156,2.074-0.486,3.098-0.975l0.089-0.04v-8.602c0-1.657,1.343-3,2.999-3h7.085c1.082,0,2.029,0.573,2.558,1.432  c0.666,0.967,1.358,1.711,2.058,2.251c1.089,0.84,2.229,1.212,3.339,1.195c1.15-0.017,2.348-0.457,3.493-1.23  c0.935-0.632,1.813-1.47,2.589-2.476c0.589-0.763,1.473-1.162,2.367-1.163v-0.009h7.25c1.656,0,3,1.343,3,3  c0,0.088-0.004,0.176-0.012,0.262v82.231c-0.005,8.694-4.727,14.232-10.803,16.667c-2.33,0.934-4.863,1.394-7.4,1.383  c-2.531-0.01-5.065-0.488-7.402-1.429c-6.221-2.503-11.108-8.177-11.108-16.933h-0.012V72.387L110.77,72.387z M80.831,121.408  l29.939-62.962v-9.548c-0.771,0.24-1.539,0.418-2.296,0.534c-2.532,0.386-5.012,0.1-7.203-0.936  c-2.234-1.055-4.104-2.855-5.355-5.474c-0.43-0.899-0.782-1.882-1.047-2.949l-2.335-1.107  c-11.469,24.186-22.882,48.406-34.373,72.578c-1.916,4.935-0.601,9.356,2.218,12.41c1.203,1.303,2.664,2.369,4.257,3.132  c1.592,0.763,3.32,1.229,5.059,1.337C73.963,128.686,78.328,126.68,80.831,121.408L80.831,121.408z M80.873,49.583l-2.605-1.235  c-1.274,0.525-2.567,0.89-3.843,1.084c-2.475,0.377-4.905,0.108-7.07-0.878c-2.216-1.009-4.081-2.731-5.352-5.229  c-0.492-0.968-0.894-2.051-1.187-3.252l-2.333-1.106l-33.927,71.545c-2.536,5.348-1.241,10.177,1.773,13.442  c1.203,1.304,2.664,2.368,4.257,3.132c1.592,0.763,3.32,1.229,5.059,1.337c4.268,0.264,8.632-1.742,11.136-7.014  c0.561-1.183,1.481-3.09,2.506-5.215C59.961,94.073,70.348,71.778,80.873,49.583L80.873,49.583z M116.769,59.623v56.444h-0.012  c0,5.914,3.238,9.721,7.359,11.378c1.646,0.663,3.427,1,5.199,1.007c1.768,0.007,3.531-0.313,5.15-0.961  c3.967-1.589,7.049-5.272,7.053-11.112V36.884h-2.875c-0.926,1.021-1.932,1.901-2.991,2.617c-2.077,1.403-4.392,2.203-6.774,2.239  c-2.424,0.037-4.842-0.721-7.065-2.438c-0.861-0.665-1.687-1.468-2.461-2.418h-2.583v22.531V59.623z"></path></svg>
                </svg>
                <defs>
                    <filter id="colors233137006">
                        <feColorMatrix type="matrix"
                            values="0 0 0 0 0.99609375  0 0 0 0 0.99609375  0 0 0 0 0.99609375  0 0 0 1 0"
                            class="icon-fecolormatrix"></feColorMatrix>
                    </filter>
                    <filter id="colorsf9679442195">
                        <feColorMatrix type="matrix"
                            values="0 0 0 0 0.99609375  0 0 0 0 0.99609375  0 0 0 0 0.99609375  0 0 0 1 0"
                            class="icon-fecolormatrix"></feColorMatrix>
                    </filter>
                    <filter id="colorsb629207948">
                        <feColorMatrix type="matrix"
                            values="0 0 0 0 0  0 0 0 0 0  0 0 0 0 0  0 0 0 1 0"
                            class="icon-fecolormatrix"></feColorMatrix>
                    </filter>
                </defs>
            </g>
        </g>
    </mask>
</svg>